<?xml version="1.0" encoding="utf-8"?>
<!-- Generator: Adobe Illustrator 25.2.1, SVG Export Plug-In . SVG Version: 6.00 Build 0)  -->
<svg version="1.1" id="Livello_1" xmlns="http://www.w3.org/2000/svg" xmlns:xlink="http://www.w3.org/1999/xlink" x="0px" y="0px"
	 viewBox="0 0 141.1 50" style="enable-background:new 0 0 141.1 50;" xml:space="preserve">
<style type="text/css">
	.st0{fill:#1D1D1B;}
</style>
<g>
	<g>
		<path class="st0" d="M35.3,32.4h0.9v6.5h-0.9V32.4z"/>
		<path class="st0" d="M54.9,33.2h-2.2v-0.8H58v0.8h-2.2v5.7h-0.9V33.2z"/>
		<path class="st0" d="M78.2,37.3h-3.5L74,38.9h-1l2.9-6.5h0.9l3,6.5h-1L78.2,37.3z M77.8,36.5l-1.4-3.2L75,36.5H77.8z"/>
		<path class="st0" d="M96.2,32.4h0.9v5.7h3.5v0.8h-4.5V32.4z"/>
		<path class="st0" d="M117,32.4h0.9v6.5H117V32.4z"/>
		<path class="st0" d="M139.4,37.3h-3.5l-0.7,1.6h-1l2.9-6.5h0.9l3,6.5h-1L139.4,37.3z M139.1,36.5l-1.4-3.2l-1.4,3.2H139.1z"/>
	</g>
	<path class="st0" d="M46.7,21.1V23c0,3.3-2.1,5.5-5.5,5.5h-5.8V5.4h5.5c3.3,0,5.5,2.2,5.5,5.5v1.2c0,2.1-0.8,3.6-2.3,4.4
		C45.7,17.4,46.7,18.9,46.7,21.1z M38.8,8.7V15h1.6c1.7,0,2.5-0.8,2.5-2.5v-1.7c0-1.4-0.8-2.1-2.1-2.1H38.8z M43.2,20.8
		c0-1.7-0.8-2.5-2.5-2.5h-1.9v6.9H41c1.4,0,2.1-0.8,2.1-2.1V20.8z"/>
	<path class="st0" d="M66.4,28.5L63.8,19H62v9.5h-3.5V5.4H64c3.3,0,5.5,2.2,5.5,5.5v2.5c0,2.1-0.9,3.8-2.4,4.7L70,28.5H66.4z
		 M62,15.7h1.8c1.4,0,2.1-0.8,2.1-2.1v-2.7c0-1.4-0.8-2.1-2.1-2.1H62V15.7z"/>
	<path class="st0" d="M88.5,23.4h-3.8l-0.8,5.1h-3.5l3.8-23.1H89l3.8,23.1h-3.6L88.5,23.4z M88,20l-1.4-9.7L85.2,20H88z"/>
	<path class="st0" d="M105,5.4h3.9l4.5,15.5V5.4h3.4v23.1h-3.7l-4.6-14.8v14.8H105V5.4z"/>
	<path class="st0" d="M130.1,5.4h5.5c3.3,0,5.5,2.2,5.5,5.5V23c0,3.3-2.1,5.5-5.5,5.5h-5.5V5.4z M135.4,25.2c1.4,0,2.1-0.8,2.1-2.1
		V10.8c0-1.4-0.8-2.1-2.1-2.1h-1.8v16.5H135.4z"/>
	<path class="st0" d="M0,5.4h9.9v3.3H3.5v6.4h5.1v3.3H3.5v6.8h6.4v3.3H0V5.4z"/>
	<polygon class="st0" points="26.4,0 13.1,50 14.5,50 27.8,0 	"/>
</g>
</svg>
