<svg width="685" height="305" xmlns="http://www.w3.org/2000/svg" version="1.1">

 <g>
  <title>Layer 1</title>
  <g id="svg_38">
   <path id="svg_24" fill="rgb(0%,0%,0%)" fill-rule="nonzero" d="m131.40553,134.89987c0,-14.27343 -10.3125,-20.39062 -27.34765,-20.39062c-1.5586,0 -2.87891,-1.5625 -2.87891,-3.96094c0,-1.67969 1.55859,-2.27734 2.87891,-2.27734c18.83203,0 21.71093,-8.75781 21.71093,-16.67578c0,-11.75391 -12.47265,-17.51172 -28.0664,-17.62891c-1.32032,0 -2.76172,0.11719 -3.71875,0.35938l0,83.72265l1.79687,0c23.63281,0 35.625,-7.19531 35.625,-23.14844m-72.20703,3.23829c0,-2.28125 1.67969,-3.83985 3.23828,-3.83985c1.67969,0 2.27735,0.71875 2.27735,0.71875c0,10.31641 7.55859,17.75391 17.99218,21.11328l0,-78.44922c-6.47656,3 -11.7539,7.5586 -11.7539,12.71485c0,2.64062 0.71875,4.4414 0.71875,4.4414c0,0 -0.71875,1.4375 -3.59766,1.4375c-2.64062,0 -5.75781,-2.39843 -5.75781,-6.59765c0,-7.31641 7.91797,-15.59375 20.39062,-19.42969l0,-4.55859c0,-5.16016 3.1211,-7.31641 5.87891,-7.31641c3.35937,0 4.91797,1.67969 4.91797,1.67969l0,8.15625c1.19922,0 2.39844,-0.1211 3.59765,-0.1211c23.15235,0 39.70313,8.03516 39.70313,23.50782c0,14.7539 -11.875,20.03515 -11.875,20.03515c0,0 17.51172,3.95703 17.51172,23.26953c0,19.19141 -16.67188,29.14844 -46.66016,29.14844c-22.91015,0 -36.58203,-13.3164 -36.58203,-25.91015"/>
   <path id="svg_25" fill="rgb(0%,0%,0%)" fill-rule="nonzero" d="m168.83131,133.45847c8.03907,-1.07813 18.35547,-4.91797 18.35547,-15.71094c0,-6.23828 -2.8789,-9.59766 -7.79687,-9.59766c-7.4375,0 -10.5586,6.47657 -10.5586,24.23047l0,1.07813zm38.86328,-2.75781c1.5625,0 2.51954,1.55859 2.51954,3.83984c0,10.07422 -6.95704,23.50781 -24.10938,23.50781c-17.63281,0 -28.66797,-9.11328 -28.66797,-26.26953c0,-18.71094 10.55469,-28.30469 23.8711,-28.30469c10.91406,0 14.51171,7.31641 14.51171,13.55078c0,11.9961 -11.03125,20.8711 -26.6289,20.8711c1.5625,10.55859 8.03906,15.47656 16.91406,15.47656c9.47656,0 19.79297,-6.48047 19.79297,-21.95312c0,0 0.12109,-0.71875 1.79687,-0.71875"/>
   <path id="svg_26" fill="rgb(0%,0%,0%)" fill-rule="nonzero" d="m246.3235,130.34128l26.38672,0l-11.75391,-45.34375l-14.63281,45.34375zm-16.91406,19.55078l4.67969,-13.3164c-17.75391,0 -28.66797,9.11718 -28.66797,22.67187c0,5.87891 3.59765,8.75781 8.39453,8.75781c8.51562,0 13.3164,-11.875 15.59375,-18.11328m55.17578,-19.55078l15.71484,-0.12109c2.87891,0 4.31641,1.67968 4.31641,3.59765c0,1.92188 -1.07813,2.64063 -1.07813,2.64063l-17.03125,0l6.83594,22.78906c1.19922,4.07813 -2.75781,7.31641 -5.27734,7.31641c-3.35938,0 -4.91797,-1.67578 -4.91797,-1.67578l-8.51563,-28.42969l-30.58984,0l-5.99609,16.3125c-3.23828,8.75781 -10.31641,20.27344 -24.23047,20.27344c-9.35547,0 -15.11328,-5.03907 -15.11328,-14.15625c0,-20.75 20.63281,-28.54688 37.66406,-28.54688l17.51172,-49.41797c0.71875,-2.16015 1.55859,-3.96094 2.51953,-5.16015l-3.47656,-11.63282c-1.20313,-3.96093 2.99609,-6.59765 5.51562,-6.59765c3.35938,0 4.91797,1.67968 4.91797,1.67968l21.23047,71.12891zm0,0"/>
   <path id="svg_27" fill="rgb(0%,0%,0%)" fill-rule="nonzero" d="m322.01491,133.45847c8.03515,-1.07813 18.35156,-4.91797 18.35156,-15.71094c0,-6.23828 -2.87891,-9.59766 -7.79688,-9.59766c-7.4375,0 -10.55468,6.47657 -10.55468,24.23047l0,1.07813zm38.86328,-2.75781c1.55859,0 2.51953,1.55859 2.51953,3.83984c0,10.07422 -6.95703,23.50781 -24.11328,23.50781c-17.62891,0 -28.66797,-9.11328 -28.66797,-26.26953c0,-18.71094 10.55859,-28.30469 23.87109,-28.30469c10.91797,0 14.51563,7.31641 14.51563,13.55078c0,11.9961 -11.03516,20.8711 -26.62891,20.8711c1.5586,10.55859 8.03516,15.47656 16.91016,15.47656c9.47656,0 19.79297,-6.48047 19.79297,-21.95312c0,0 0.12109,-0.71875 1.80078,-0.71875"/>
   <path id="svg_28" fill="rgb(0%,0%,0%)" fill-rule="nonzero" d="m360.761,115.94675c0.11719,-7.4375 6.35547,-12.47656 20.02734,-12.47656c13.07813,0 20.27344,5.64062 20.27344,11.15625c0,3.12109 -2.75781,4.80078 -5.15625,4.80078c-2.8789,0 -3.59765,-1.44141 -3.59765,-1.44141c0,0 0.71875,-0.83984 0.71875,-2.75781c0,-4.32031 -6.48047,-7.07813 -11.75391,-7.07813c-6,0 -10.79688,2.03907 -10.79688,6.59766c0,13.07422 33.10547,9.59375 33.10547,28.07031c0,10.67188 -10.55468,15.23047 -24.10937,15.23047c-14.875,0 -24.47266,-9.83594 -24.47266,-21.94922c0,-4.55859 2.03906,-7.19922 4.80078,-7.19922c2.87891,0 3.35938,1.44141 3.35938,1.44141c0,0 -0.71875,1.79688 -0.71875,4.4375c0,10.19531 6.23437,18.59375 17.6289,18.59375c8.39844,0 12.71485,-2.64062 12.83594,-8.99609c0.1211,-13.91407 -32.50781,-9.83594 -32.14453,-28.42969"/>
   <path id="svg_29" fill="rgb(0%,0%,0%)" fill-rule="nonzero" d="m421.45631,109.34909l0,30.22657c0,9.35546 6.59766,13.79687 12.47266,13.79687c9.71484,0 14.39453,-6.71875 14.39453,-23.39062c0,0 0.23828,-0.72266 1.80078,-0.72266c0.95703,0 2.15625,1.20312 2.15625,6.35937c0,11.875 -5.51562,22.42969 -19.78906,22.42969c-12.83594,0 -21.83203,-6.59765 -21.83203,-20.99219l0,-44.01953c0,-5.15625 3,-7.3164 6.23828,-7.3164c3.35937,0 4.55859,1.67968 4.55859,1.67968l0,17.75l16.4336,0c3.47656,0 4.07812,1.32032 4.07812,4.19922l-20.51172,0zm0,0"/>
   <path id="svg_30" fill="rgb(0%,0%,0%)" fill-rule="nonzero" d="m467.636,75.40378c0,-7.31641 -1.67969,-9.71484 -4.31641,-9.71484c-3.24218,0 -3.83984,4.55859 -3.83984,30.46484c3.71875,-4.79687 8.15625,-12.23437 8.15625,-20.75m45.94141,53.85547c0.95703,0 2.16015,1.20312 2.16015,6.35937c0,12.11329 -6.83984,22.42969 -16.67578,22.42969c-10.67578,0 -17.87109,-8.03515 -17.87109,-19.07031l0,-17.03516c0,-10.67578 -3,-14.27343 -7.19922,-14.27343c-7.31641,0 -14.51172,6.11718 -14.51172,28.1914l0,20.50781c0,0 -1.19922,1.67969 -4.55859,1.67969c-3.23828,0 -6.23828,-2.16015 -6.23828,-7.3164l0,-60.09375c0,-19.3125 2.51953,-29.62891 14.51562,-29.62891c6.11719,0 9.59375,5.27734 9.59375,14.75391c0,10.91406 -8.03516,20.87109 -13.3125,26.14843l0,10.55469c3.23828,-5.75391 8.39453,-8.99609 15.95313,-8.99609c10.07421,0 17.03125,6.48047 17.03125,19.07422l0,17.03125c0,9.35546 3.23828,13.79687 8.03906,13.79687c5.39844,0 11.27344,-6.11719 11.27344,-23.39062c0,0 0.12109,-0.72266 1.80078,-0.72266"/>
   <path id="svg_31" fill="rgb(0%,0%,0%)" fill-rule="nonzero" d="m523.41334,133.45847c8.03907,-1.07813 18.35547,-4.91797 18.35547,-15.71094c0,-6.23828 -2.8789,-9.59766 -7.79687,-9.59766c-7.4375,0 -10.5586,6.47657 -10.5586,24.23047l0,1.07813zm38.86329,-2.75781c1.5625,0 2.51953,1.55859 2.51953,3.83984c0,10.07422 -6.95703,23.50781 -24.10938,23.50781c-17.63281,0 -28.66797,-9.11328 -28.66797,-26.26953c0,-18.71094 10.55469,-28.30469 23.8711,-28.30469c10.91406,0 14.51172,7.31641 14.51172,13.55078c0,11.9961 -11.03516,20.8711 -26.62891,20.8711c1.5625,10.55859 8.03906,15.47656 16.91406,15.47656c9.47656,0 19.79297,-6.48047 19.79297,-21.95312c0,0 0.12109,-0.71875 1.79688,-0.71875"/>
   <path id="svg_32" fill="rgb(0%,0%,0%)" fill-rule="nonzero" d="m571.51881,109.34909l0,30.22657c0,9.35546 6.59375,13.79687 12.47266,13.79687c9.71484,0 14.39453,-6.71875 14.39453,-23.39062c0,0 0.23828,-0.72266 1.79688,-0.72266c0.96093,0 2.16015,1.20312 2.16015,6.35937c0,11.875 -5.51562,22.42969 -19.79297,22.42969c-12.83203,0 -21.82812,-6.59765 -21.82812,-20.99219l0,-44.01953c0,-5.15625 2.99609,-7.3164 6.23437,-7.3164c3.35938,0 4.5625,1.67968 4.5625,1.67968l0,17.75l16.42969,0c3.48047,0 4.07813,1.32032 4.07813,4.19922l-20.50782,0zm0,0"/>
   <path id="svg_33" fill="rgb(0%,0%,0%)" fill-rule="nonzero" d="m633.88991,129.25925c0.96093,0 2.16015,1.20312 2.16015,6.35937c0,12.11329 -7.3164,22.42969 -17.87109,22.42969c-13.19531,0 -19.19141,-8.39453 -19.19141,-22.07031l0,-25.1875c0,-5.16016 2.9961,-7.32031 6.23828,-7.32031c3.35547,0 4.55469,1.68359 4.55469,1.68359l0,34.42188c0,9.35546 3.96094,13.79687 9.83594,13.79687c4.67969,0 12.47656,-4.91797 12.47656,-23.39062c0,0 0.23828,-0.72266 1.79688,-0.72266m-29.38672,-49.77734c3.95703,0 7.19922,3.23828 7.19922,7.19531c0,3.96094 -3.24219,7.07812 -7.19922,7.07812c-3.95703,0 -7.07813,-3.11718 -7.07813,-7.07812c0,-3.95703 3.1211,-7.19531 7.07813,-7.19531"/>
   <path id="svg_34" fill="rgb(0%,0%,0%)" fill-rule="nonzero" d="m682.59303,133.09909c1.5586,0 2.51563,1.5586 2.51563,3.83985c0,7.67578 -6.95703,21.10937 -24.10938,21.10937c-17.63281,0 -28.66797,-9.11328 -28.66797,-26.26953c0,-18.71094 10.5586,-28.30469 23.8711,-28.30469c10.91406,0 14.51562,7.3125 14.51562,13.55078c0,4.19922 -3.12109,6.59766 -5.76172,6.59766c-2.8789,0 -3.59765,-1.4375 -3.59765,-1.4375c0,0 0.71875,-1.80078 0.71875,-4.44141c0,-5.39453 -3.47657,-9.59375 -7.79297,-9.59375c-7.4375,0 -10.55469,6.47657 -10.55469,24.23047c0,14.39453 6.95703,20.98828 17.26953,20.98828c10.67578,0 19.79297,-6.47656 19.79297,-19.55078c0,0 0.11719,-0.71875 1.80078,-0.71875"/>
   <path id="svg_35" fill="rgb(91.438293%,73.51532%,66.836548%)" fill-rule="nonzero" d="m207.09694,34.95456c-11.47656,-10.98047 -25.40235,-17.60937 -40.33594,-22.26953c-18.42187,-5.74609 -37.23828,-7.19531 -56.31641,-4.05469c-12.96875,2.13282 -25.1914,6.54688 -36.67578,12.89844c-24.23828,13.41406 -42.03515,32.83203 -52.625,58.40625c-10.5664,25.50391 -12.05859,51.71484 -4.4414,78.41406c4.77734,16.75391 13,31.64063 24.17968,44.78516c8.75782,10.29687 19.35938,18.56641 31.15625,25.34766c10.07813,5.79296 20.84766,9.69921 32.0586,12.16796c14.95703,3.29688 30.14453,4.48438 45.45312,2.40235c1.73828,-0.23438 3.51563,-0.21875 5.29297,-0.08203c-10.67187,3.1289 -21.5664,4.48047 -32.66797,4.23047c-33.23047,-0.75782 -61.93359,-12.66407 -85.50781,-35.97657c-22.68359,-22.42968 -34.6875,-49.98437 -36.46875,-81.85547c-1.33984,-23.90234 4.11719,-46.33984 15.94141,-67.08203c11.58593,-20.32031 27.64843,-36.21484 48.29687,-47.46875c15.79297,-8.60937 32.61719,-13.60547 50.49219,-14.60937c15.25,-0.85547 30.26172,0.90625 44.9375,5.57422c12.62891,4.01953 24.57812,9.34765 35.3125,17.08593c4.60156,3.31641 8.55859,7.53125 12.80859,11.33594c-0.29687,0.25 -0.59375,0.5 -0.89062,0.75"/>
   <path id="svg_36" fill="rgb(91.438293%,73.51532%,66.836548%)" fill-rule="nonzero" d="m175.23366,233.07566c-6.50391,-16.76954 -16.6836,-27.8125 -35.26953,-29.75782c0.07031,8.58985 2.46484,15.85547 7.66015,22.11328c7.08985,8.53907 16.82813,12.48047 27.22266,15.08594c11.70703,2.9336 22.84375,6.94141 32.04297,15.21094c9.82812,8.83594 14.14843,20.07031 15.1289,33.39062c-18.07812,-1.07421 -31.13672,-9.83203 -41.15234,-25.60937c-2.76172,18.71484 -12.73438,31.4375 -27.90625,41.23047c-5.73828,-17.02735 -1.94531,-32.28125 6.57422,-46.58594c-6.5625,1.08594 -13.06641,3.15234 -19.4961,2.94141c-6.45703,-0.21094 -21.01953,-0.66407 -27.33203,-3.03125c16.1211,3.51562 39.71485,-0.33985 55.77735,-7.73047c-10.45313,14.14453 -15.97657,28.3125 -12.54297,44.91406c10.70312,-3.80469 17.6875,-16.26562 24.09375,-43.08594c6.82031,15.64063 16.29297,27.51953 34.60156,29.59375c-0.44141,-12.61718 -5.62891,-22.47656 -16.08594,-28.05078c-10.45703,-5.57422 -21.67968,-10.02344 -32.99609,-13.60937c-20.75,-6.57813 -29.08203,-21.08985 -31.57813,-40.60157c-0.07812,-0.58203 0.08594,-1.1914 0.17579,-2.22656c18.70703,0.13281 30.71484,10.54297 40.40234,26.22266c3.94141,-17.1875 10.57031,-31.54297 25.93359,-41.2461c8.9375,16.65625 2.29688,31.1836 -5.83203,46.34766c11.08203,-3.71875 48.5,-32.4375 59.13281,-29.65625c4.39454,1.15234 8.47266,3.50781 12.53907,5.96094c-18.23438,-7.82813 -62.3711,22.80078 -79.73828,31.01953c8.67968,-14.69531 18.11328,-28.28516 12.67968,-47.03906c-15.01172,11.16015 -20.39062,26.46093 -24.03515,44.19922"/>
  </g>
 </g>
</svg>